<svg version="1.2" xmlns="http://www.w3.org/2000/svg" viewBox="0 0 958 956" width="958" height="956">
	<style>
		.s0 { fill: #000000 } 
	</style>
	<g id="Layer 3">
		<path id="Path 0" fill-rule="evenodd" class="s0" d="m485.5 1.15c403.73-0.18 415.15-0.13 420.5 1.7 3.02 1.03 8.99 3.51 13.25 5.51 5.89 2.77 9.64 5.5 15.63 11.39 4.33 4.26 9.44 10.23 11.35 13.25 1.91 3.02 4.77 8.65 9.24 19.5l0.82 324c0.47 186.02 0.43 367.01-0.98 526l-2.41 6.5c-1.33 3.58-3.99 9.18-5.91 12.45-1.92 3.27-6.64 9.12-10.49 13-3.85 3.88-9.48 8.51-12.5 10.29-3.02 1.79-8.42 4.45-12 5.92-4.5 1.85-9.42 2.91-16 3.46-5.23 0.43-195.57 0.8-423 0.82-346.58 0.03-414.31-0.18-418.5-1.33-2.75-0.75-7.36-2.32-10.25-3.49-2.89-1.17-8.51-4.31-12.5-6.98-3.99-2.68-9.07-6.84-11.28-9.25-2.22-2.42-5.42-6.41-7.12-8.89-1.69-2.48-3.98-6.3-5.08-8.5-1.1-2.2-3.08-6.92-6.77-17v-842l2.96-9c1.76-5.36 4.85-11.83 7.63-16 2.58-3.85 7.54-9.71 11.05-13.03 3.5-3.31 9.28-7.68 12.86-9.7 3.58-2.02 8.52-4.44 11-5.38 2.48-0.94 8.77-2.01 14-2.38 5.22-0.37 196.25-0.76 424.5-0.86zm-144.5 211.16c-5.77 1.4-17.93 4.79-27 7.53-9.07 2.74-23.02 7.42-31 10.4-7.98 2.98-20.31 7.86-27.41 10.84l-12.91 5.42c-12.74 19.38-20.84 32.65-26.21 42-5.37 9.35-13.76 25.1-18.64 35-4.88 9.9-11.62 24.52-14.98 32.5-3.36 7.98-8.48 21.02-11.38 29-2.9 7.98-7.32 21.48-9.84 30-2.51 8.52-6.13 22.02-8.05 30-1.91 7.98-4.62 20.8-6.01 28.5-1.39 7.7-3.42 20.98-4.51 29.5-1.09 8.52-2.43 21.58-2.98 29-0.54 7.42-1.26 20.7-1.6 29.5-0.33 8.8-0.1 26.8 0.52 40 0.61 13.2 1.43 26.47 1.81 29.49l0.69 5.5c17.43 12.41 28.68 19.89 36.25 24.64 7.56 4.75 20.5 12.37 28.75 16.94 8.25 4.57 22.65 11.87 32 16.2 9.35 4.34 23.07 10.3 30.5 13.24 7.43 2.94 20.25 7.63 28.5 10.43 8.25 2.81 15.23 5.11 15.5 5.12 0.27 0.01 4.59-5.96 9.6-13.27 5-7.31 11.47-17.34 14.37-22.29 2.9-4.95 6.79-12.04 8.65-15.75 1.86-3.71 3.39-7.09 3.4-7.5 0.02-0.41-4.37-2.52-9.75-4.67-5.37-2.16-17.2-7.69-26.27-12.28-9.07-4.59-17.27-9.13-18.22-10.08-0.94-0.94-1.39-2.18-1-2.74 0.4-0.57 3.2-2.95 6.22-5.29 3.02-2.34 6.06-4.25 6.75-4.23 0.69 0.02 6.31 2.23 12.5 4.91 6.19 2.67 17.77 7.12 25.75 9.88 7.98 2.76 20.35 6.62 27.5 8.58 7.15 1.95 18.63 4.73 25.5 6.17 6.88 1.44 18.57 3.46 26 4.5 7.43 1.04 20.93 2.43 30 3.09 10.08 0.73 24.28 0.96 36.5 0.59 11-0.34 27.42-1.55 36.5-2.68 9.08-1.14 22.13-3.19 29-4.57 6.88-1.38 18.35-4.05 25.5-5.93 7.15-1.88 19.52-5.66 27.5-8.39 7.98-2.72 19.45-7.05 25.5-9.61 6.05-2.57 12.42-5.19 14.16-5.83 2.99-1.1 3.49-0.92 8.89 3.33 3.15 2.48 6 5.11 6.34 5.86 0.35 0.79-0.44 2.14-1.89 3.24-1.37 1.03-10.15 5.65-19.5 10.26-9.35 4.61-20.71 9.79-25.25 11.51-5.99 2.27-8.25 3.61-8.26 4.88 0 0.96 3.43 7.83 7.63 15.25 4.2 7.42 11.86 19.91 17.01 27.75 5.15 7.84 9.82 14.48 10.37 14.75 0.55 0.27 5.39-0.92 10.75-2.65 5.36-1.73 16.05-5.51 23.75-8.41 7.7-2.89 19.4-7.57 26-10.4 6.6-2.83 19.42-8.86 28.5-13.42 9.08-4.55 21.45-11.13 27.5-14.62 6.05-3.48 16.63-9.95 23.5-14.36 6.88-4.41 17-11.21 22.5-15.12l10-7.1c1.03-10.01 1.84-23.72 2.46-36.92 0.8-17.03 0.83-30.53 0.1-46.5-0.56-12.37-1.73-29.48-2.61-38-0.88-8.52-2.87-23.15-4.44-32.5-1.57-9.35-4.25-23.3-5.97-31-1.72-7.7-5.11-20.98-7.53-29.5-2.42-8.52-6.63-22.02-9.37-30-2.73-7.98-7.43-20.57-10.44-28-3.01-7.43-8.41-19.8-12-27.5-3.59-7.7-9.77-20.07-13.72-27.5-3.96-7.43-9.69-17.77-12.74-23-3.04-5.23-9.74-16.14-14.89-24.25-8.63-13.62-9.71-14.91-14.1-16.86-2.61-1.16-11.95-5.01-20.75-8.57-8.8-3.55-23.2-8.87-32-11.81-8.8-2.94-22.75-7.14-31-9.33-8.25-2.2-20.17-5.13-26.5-6.53-6.33-1.4-14.65-3.07-18.5-3.71-6.44-1.07-7.11-1.02-8.35 0.7-0.74 1.02-4.67 8.72-8.75 17.11-4.07 8.39-7.4 15.7-7.4 16.25 0 0.55-1.01 0.99-2.25 0.98-1.24-0.01-5.17-0.44-8.75-0.95-3.58-0.51-11.45-1.43-17.5-2.04-6.05-0.61-20-1.48-31-1.94-11-0.45-29-0.46-40-0.01-11 0.45-26.98 1.61-35.5 2.58-8.52 0.97-16.95 1.79-18.73 1.82-3.19 0.06-3.32-0.14-12-17.44-8.31-16.58-8.93-17.51-11.77-17.69-1.65-0.1-8.85 1.09-16 2.63-7.15 1.55-17.73 3.96-23.5 5.37z"/>
		<path id="Path 1" class="s0" d="m582.5 421.02c-2.2 0.44-6.48 1.73-9.5 2.85-3.02 1.13-8.2 3.79-11.5 5.91-3.3 2.12-8.7 6.8-12 10.39-3.3 3.58-7.43 9.18-9.17 12.43-1.75 3.24-4.39 9.5-5.88 13.9-2.07 6.11-2.81 10.6-3.17 19-0.33 7.53-0.01 13.21 1 18 0.81 3.85 2.66 9.92 4.1 13.5 1.45 3.58 4.09 8.91 5.88 11.85 1.78 2.95 5.99 8.13 9.35 11.5 3.35 3.38 8.74 7.73 11.98 9.65 3.23 1.92 8.35 4.36 11.39 5.41 3.12 1.08 9.43 2.11 14.52 2.36 5.29 0.27 11.47-0.06 15-0.8 3.3-0.7 9.38-2.98 13.5-5.06 4.13-2.09 9.98-5.99 13-8.67 3.02-2.68 7.59-7.99 10.14-11.81 2.56-3.81 5.78-9.63 7.16-12.93 1.38-3.3 3.23-9.49 4.11-13.75 0.87-4.26 1.59-11.57 1.59-16.25 0-4.67-0.67-11.65-1.5-15.5-0.83-3.85-2.54-9.59-3.81-12.75-1.27-3.16-4.29-8.67-6.7-12.25-2.42-3.57-6.89-8.88-9.94-11.78-3.05-2.9-9.15-7.13-13.55-9.39-4.4-2.26-10.92-4.71-14.5-5.45-3.58-0.74-8.98-1.3-12-1.25-3.02 0.05-7.3 0.45-9.5 0.89zm-228.5 0.54c-3.57 0.77-9.88 3.06-14 5.1-5.49 2.7-9.51 5.73-15 11.27-5.19 5.25-8.79 10.04-11.67 15.58-2.3 4.39-5.06 11.14-6.13 14.99-1.08 3.85-2.28 10.38-2.67 14.5-0.42 4.47-0.23 10.93 0.48 16 0.65 4.68 2.33 11.65 3.74 15.5 1.41 3.85 4.01 9.48 5.77 12.5 1.77 3.02 5.86 8.36 9.1 11.86 3.23 3.5 8.58 8.12 11.88 10.27 3.3 2.16 9.49 5.03 13.75 6.39 5.65 1.81 9.98 2.48 16 2.49 4.54 0 10.95-0.69 14.25-1.52 3.3-0.84 8.93-2.98 12.5-4.75 4.41-2.18 9.09-5.8 14.53-11.23 5.82-5.8 9.19-10.22 12.2-16.01 2.3-4.4 5.12-11.6 6.28-16 1.56-5.9 2.12-11.02 2.13-19.5 0.01-8.58-0.53-13.53-2.11-19.5-1.17-4.4-4.02-11.6-6.33-15.99-2.91-5.54-6.5-10.31-11.7-15.52-5.36-5.39-9.64-8.6-15-11.28-4.13-2.06-10.65-4.41-14.5-5.21-3.85-0.81-9.25-1.44-12-1.4-2.75 0.03-7.93 0.69-11.5 1.46z"/>
	</g>
</svg>