<svg version="1.2" xmlns="http://www.w3.org/2000/svg" viewBox="0 0 1642 634" width="1642" height="634">
	<style>
		.s0 { fill: #ffffff } 
	</style>
	<path id="Path 0" class="s0" d="m52.25 2.12c-2.89 0.48-8.06 1.83-11.5 2.99-3.44 1.16-8.27 3.52-10.75 5.24-2.48 1.73-5.42 4.04-6.54 5.15-1.12 1.1-3.8 4.48-5.94 7.5-2.74 3.86-4.29 7.44-5.21 12-0.72 3.58-1.3 8.08-1.3 10 0.01 1.92 1.13 6.76 2.5 10.75 1.37 3.99 3.65 9.16 5.07 11.5 1.42 2.34 4.01 5.26 5.75 6.49 1.74 1.23 5.42 3.82 8.17 5.76 3.71 2.62 10.93 5.44 28 10.95 12.65 4.08 28.4 9.07 35 11.09 6.6 2.02 16.95 5.23 23 7.13 6.05 1.91 12.13 3.85 13.5 4.33 1.38 0.47 7.9 2.49 14.5 4.48 6.6 1.98 12.9 3.98 14 4.44 1.1 0.45 7.63 2.48 14.5 4.51 6.88 2.02 19.7 5.94 28.5 8.7 8.8 2.76 22.97 7.2 31.5 9.88 8.53 2.67 23.6 7.4 33.5 10.51 9.9 3.11 23.4 7.36 30 9.44 6.6 2.08 15.82 4.96 20.5 6.4 4.68 1.44 11.65 3.57 15.5 4.74 3.85 1.17 10.15 3.18 14 4.46 3.85 1.29 11.73 3.75 17.5 5.48 5.77 1.74 18.15 5.56 27.5 8.5 9.35 2.94 28.02 8.79 41.5 13.02 13.48 4.22 26.98 8.33 30 9.14 3.02 0.8 11.35 3.27 18.5 5.49 7.15 2.21 15.25 4.68 18 5.49 2.75 0.8 8.15 2.32 12 3.37 3.85 1.05 12.85 3.13 20 4.62 9.94 2.07 15.95 2.72 25.5 2.77 9.67 0.05 14.06-0.39 19.4-1.94 4.05-1.18 7.89-3.03 9.32-4.5 1.34-1.38 3.08-3.85 3.88-5.5 0.79-1.65 1.44-3.45 1.45-4 0-0.55 0.58-1.68 1.29-2.5 0.71-0.82 2.1-3.53 3.09-6 1-2.47 2.17-5.4 2.62-6.5 0.44-1.1 1.06-4.81 1.38-8.25 0.49-5.42 0.27-6.68-1.69-9.5-1.24-1.79-4.24-5.95-6.67-9.25-2.43-3.3-5.35-6.98-6.49-8.19-1.14-1.2-4.78-3.6-8.08-5.33-3.3-1.74-12.52-5.86-20.5-9.16-7.98-3.3-23.95-9.08-35.5-12.85-11.55-3.76-30.23-9.76-41.5-13.34-11.27-3.57-27.02-8.52-35-10.99-7.98-2.46-19.9-6.13-26.5-8.14-6.6-2.01-16.73-5.16-22.5-7-5.77-1.84-16.35-5.14-23.5-7.32-7.15-2.19-22.9-7.13-35-10.97-12.1-3.85-30.32-9.55-40.5-12.69-10.18-3.13-25.7-7.93-34.5-10.66-8.8-2.74-17.8-5.58-20-6.33-2.2-0.74-9.4-2.99-16-5-6.6-2-18.3-5.63-26-8.05-7.7-2.42-17.15-5.37-21-6.54-3.85-1.18-14.65-4.55-24-7.48-9.35-2.93-25.1-7.86-35-10.95-9.9-3.08-25.42-8.02-34.5-10.98-9.08-2.95-19.2-5.85-22.5-6.45-3.3-0.6-6.22-1.04-6.5-0.97-0.27 0.07-2.86 0.52-5.75 1.01zm1512.75-0.41c-1.37 0.2-7.45 1.9-13.5 3.77-6.05 1.88-14.6 4.52-19 5.88-4.4 1.36-16.55 5.17-27 8.46-10.45 3.3-24.4 7.65-31 9.68-6.6 2.03-19.88 6.15-29.5 9.16-9.62 3.01-22.22 6.98-28 8.83-5.78 1.84-15.9 4.98-22.5 6.99-6.6 2.01-13.12 4.05-14.5 4.54-1.37 0.48-4.75 1.54-7.5 2.34-2.75 0.8-16.03 4.9-29.5 9.09-13.47 4.2-31.03 9.69-39 12.2-7.97 2.51-18.78 5.89-24 7.52-5.22 1.64-14.67 4.58-21 6.55-6.33 1.96-16.9 5.29-23.5 7.38-6.6 2.1-21.45 6.73-33 10.29-11.55 3.56-28.99 8.98-38.75 12.04-9.76 3.06-25.51 8.01-35 10.98-9.49 2.98-23.33 7.44-30.75 9.92-7.42 2.48-19.13 6.82-26 9.63-6.87 2.81-16.28 7.01-20.9 9.33-5.75 2.88-9.6 5.63-12.24 8.71-2.12 2.47-3.86 4.95-3.87 5.5-0.01 0.55-1.07 2.13-2.35 3.5-1.28 1.38-3.24 4.07-4.36 6-1.64 2.82-1.96 4.77-1.64 10 0.22 3.57 0.85 6.95 1.4 7.5 0.55 0.55 0.99 1.56 0.98 2.25-0.01 0.69 2.01 5.41 4.49 10.5 2.48 5.09 5.54 10.38 6.81 11.75 1.51 1.64 4.67 3.1 9.24 4.26 3.82 0.97 9.41 2.1 12.44 2.52 3.2 0.44 9.68 0.27 15.5-0.42 5.5-0.64 15.17-2.3 21.5-3.67 6.33-1.37 21.63-5.5 34-9.17 12.38-3.68 26.33-7.81 31-9.18 4.67-1.37 15.7-4.74 24.5-7.49 8.8-2.75 28.38-8.85 43.5-13.56 15.13-4.71 30.88-9.58 35-10.82 4.13-1.24 10.2-3.17 13.5-4.3 3.3-1.12 18.6-5.93 34-10.68 15.4-4.75 36.33-11.27 46.5-14.48 10.17-3.21 25.25-7.94 33.5-10.51 8.25-2.57 21.97-6.84 30.5-9.5 8.53-2.66 19.55-6.06 24.5-7.55 4.95-1.5 15.08-4.65 22.5-7.01 7.42-2.35 17.78-5.62 23-7.26 5.22-1.64 14.9-4.64 21.5-6.65 6.6-2.02 13.13-4.06 14.5-4.53 1.38-0.48 9.25-2.95 17.5-5.5 8.25-2.54 21.53-6.88 29.5-9.64 7.97-2.76 16.53-6.42 19-8.14 2.47-1.72 5.17-3.77 6-4.55 0.83-0.78 2.01-1.7 2.64-2.05 0.63-0.34 2.09-2.2 3.26-4.12 1.16-1.92 2.85-5.08 3.75-7 0.9-1.92 2.1-5.08 2.66-7 0.57-1.92 1.02-6.42 1-10-0.03-3.58-0.44-8.56-0.93-11.08-0.6-3.14-2.55-6.78-6.17-11.5-3.14-4.11-7.6-8.45-11-10.7-3.14-2.07-9.08-4.83-13.21-6.11-4.12-1.29-9.75-2.55-12.5-2.8-2.75-0.25-6.12-0.3-7.5-0.1zm-1508.5 326.85c-6.4 1.75-10.88 3.75-15.5 6.91-3.58 2.44-8.8 6.6-11.61 9.24-2.81 2.63-5.81 6.14-6.66 7.79-0.85 1.65-2.3 4.8-3.21 7-0.91 2.2-2.03 4.9-2.49 6-0.47 1.1-1.56 3.91-2.44 6.25-0.87 2.34-1.58 5.49-1.57 7 0.01 1.51-0.56 3.34-1.25 4.06-0.8 0.82-1.39 4.93-1.58 11-0.17 5.33 0.13 13.96 0.67 19.19 0.54 5.22 1.66 12.65 2.49 16.5 0.83 3.85 1.84 8.35 2.24 10 0.4 1.65 1.78 4.69 3.07 6.75 1.29 2.06 2.34 4.2 2.34 4.75 0 0.55 2.59 5.13 5.75 10.17 3.16 5.05 6.79 10.11 8.07 11.25 1.27 1.14 5.77 6.15 10 11.13 4.22 4.97 12.4 13.6 18.18 19.16 5.78 5.57 12.13 11.62 14.13 13.46 2 1.83 4.7 4.21 6 5.28 1.3 1.08 6.87 5.61 12.37 10.06 5.5 4.46 12.83 10.11 16.29 12.55 3.46 2.44 6.25 4.66 6.21 4.94-0.04 0.27 2.75 2.04 6.21 3.93 3.46 1.88 9.1 5.15 12.54 7.25 3.44 2.1 15.14 8.28 26 13.74 10.86 5.45 22.45 11.02 25.75 12.37 3.3 1.36 9.82 3.68 14.5 5.16 4.68 1.47 12.32 3.82 17 5.21 4.68 1.39 10.97 3.19 14 3.99 3.03 0.8 10.22 2.08 16 2.85 5.77 0.76 17.48 2.14 26 3.06 11.21 1.21 25.47 1.71 51.5 1.81 27.95 0.1 39.69-0.26 52.5-1.61 9.07-0.95 20.77-2.46 26-3.35 5.23-0.89 16.25-3.35 24.5-5.47 8.25-2.12 18.82-5.17 23.5-6.78 4.68-1.61 13.23-4.73 19-6.94 5.77-2.21 15-6.36 20.5-9.22 5.5-2.87 14.95-7.21 21-9.66 6.05-2.44 12.58-5.39 14.5-6.54 1.92-1.15 10.48-6.14 19-11.09 8.52-4.94 18.88-11.26 23-14.04 4.13-2.78 12.45-7.51 18.5-10.51 6.05-3 13.48-6.91 16.5-8.7 3.02-1.78 13.38-7.72 23-13.19 9.63-5.47 29.65-15.91 44.5-23.2 14.85-7.3 29.92-14.98 33.5-17.07 3.58-2.1 12.13-6.15 19-9.02 6.88-2.86 16.77-6.9 22-8.98 5.23-2.08 15.58-5.4 23-7.38 7.42-1.98 17.33-4.28 22-5.11 4.92-0.87 14.5-1.51 22.75-1.51 7.84 0 16.16 0.46 18.5 1.01 2.34 0.56 11.23 2.78 19.75 4.93 8.52 2.15 20 5.69 25.5 7.87 5.5 2.18 15.63 6.31 22.5 9.18 6.88 2.87 16.1 7.27 20.5 9.77 4.4 2.51 19.48 10.17 33.5 17.04 14.02 6.86 33.15 16.87 42.5 22.23 9.35 5.37 19.02 10.94 21.5 12.39 2.48 1.45 8.33 4.51 13 6.8 4.67 2.29 11.2 5.72 14.5 7.62 3.3 1.9 9.6 5.82 14 8.7 4.4 2.88 13.17 8.17 19.5 11.75 6.33 3.58 14.2 8.14 17.5 10.13 3.3 1.98 10.28 5.24 15.5 7.24 5.22 2 14.45 6.23 20.5 9.41 6.05 3.18 15.5 7.43 21 9.43 5.5 2.01 13.83 4.99 18.5 6.62 4.67 1.63 15.36 4.75 23.75 6.93 8.39 2.17 20.76 4.81 27.5 5.85 6.74 1.05 19.45 2.51 28.25 3.25 10.06 0.85 28.63 1.29 50 1.19 29.53-0.14 37.03-0.5 57-2.78 12.65-1.45 24.13-2.87 25.5-3.15 1.38-0.29 4.53-1.01 7-1.59 2.47-0.59 12.6-3.54 22.5-6.54 9.9-3 22.5-7.42 28-9.81 5.5-2.39 16.75-7.81 25-12.04 8.25-4.24 18.6-9.84 23-12.45 4.4-2.61 9.8-5.65 12-6.76 2.2-1.11 5.62-3.3 7.6-4.87 1.97-1.57 5.09-3.98 6.92-5.35 1.83-1.38 8.54-6.69 14.91-11.81 6.36-5.13 15.16-12.55 19.55-16.5 4.38-3.96 11.36-10.59 15.5-14.75 4.13-4.16 10.44-10.88 14.02-14.94 3.58-4.07 8.05-8.99 9.94-10.94 1.89-1.96 4.93-5.92 6.75-8.81 1.82-2.89 3.31-5.48 3.31-5.75 0-0.28 1.11-1.96 2.47-3.75 1.36-1.79 2.48-3.7 2.48-4.25 0-0.55 1.05-3.03 2.33-5.5 1.27-2.48 2.91-6.53 3.64-9 0.72-2.48 1.74-6.98 2.26-10 0.51-3.03 1.39-10.45 1.94-16.5 0.56-6.05 0.75-14.6 0.44-19-0.32-4.4-1.03-8.45-1.59-9-0.55-0.55-0.99-1.9-0.98-3 0.02-1.1-1.49-6.28-3.34-11.5-1.86-5.23-4.41-11.53-5.68-14-1.26-2.48-4.81-6.87-7.89-9.77-3.07-2.91-6.37-5.49-7.33-5.75-0.96-0.27-1.75-0.93-1.75-1.48 0-0.55-3.71-2.77-8.25-4.94-6.43-3.08-10.23-4.18-17.25-5-4.95-0.58-14.62-1.05-21.5-1.05-10.27 0-14.19 0.45-22 2.55-5.22 1.41-12.87 4.32-17 6.46-4.12 2.14-9.2 5.6-11.29 7.69-2.08 2.08-3.99 4.58-4.25 5.54-0.25 0.96-0.8 1.74-1.21 1.73-0.41-0.02-1.31 1.67-1.99 3.75-0.68 2.07-1.89 7.82-2.69 12.77-0.8 4.95-1.74 18-2.08 29-0.34 11-1.15 22.55-1.81 25.66-0.65 3.12-1.53 6.04-1.96 6.5-0.43 0.46-0.76 1.51-0.75 2.34 0.01 0.82-1.39 4.2-3.12 7.5-1.73 3.3-3.44 6.22-3.79 6.5-0.36 0.27-1.81 2.52-3.22 5-1.42 2.47-3.2 5.17-3.97 6-0.77 0.82-2.96 3.52-4.87 6-1.9 2.47-5.5 6.67-7.98 9.32-2.49 2.65-7.67 7.39-11.52 10.54-3.85 3.14-8.12 6.42-9.5 7.29-1.37 0.87-4.97 2.93-8 4.58-3.03 1.64-12.25 6.38-20.5 10.53-8.25 4.15-17.92 8.75-21.5 10.24-3.58 1.48-7.85 3.3-9.5 4.05-1.65 0.75-5.25 2.23-8 3.3-2.75 1.07-10.85 3.68-18 5.8l-13 3.85c-57.22-0.24-76.11-0.8-82-1.52-5.5-0.67-13.6-2.46-18-3.97-4.4-1.5-15.2-5.68-24-9.27-8.8-3.6-21.17-9.01-27.5-12.03-6.33-3.02-15.55-7.71-20.5-10.43-4.95-2.72-16.2-8.92-25-13.77-8.8-4.85-17.58-9.8-19.5-11-1.92-1.2-9.35-5.25-16.5-9.01-7.15-3.75-22.9-12.76-35-20.01-12.1-7.25-26.05-15.77-31-18.93-4.95-3.16-16.65-9.47-26-14.03-9.35-4.55-24.87-11.44-34.5-15.31-9.62-3.88-24.48-9.52-33-12.53-8.52-3.01-18.87-6.03-23-6.7-4.12-0.68-13.8-3.15-21.5-5.51-7.7-2.36-16.48-4.98-19.5-5.84-3.02-0.85-9.33-2.25-14-3.12-4.67-0.86-13.45-2.04-19.5-2.63-6.27-0.6-22.39-0.86-37.5-0.6-23.51 0.41-27.97 0.76-39.5 3.09-7.15 1.45-14.35 3.06-16 3.59-1.65 0.53-9.98 3.18-18.5 5.9-8.52 2.73-22.48 7.42-31 10.43-8.52 3.01-21.35 7.72-28.5 10.47-7.15 2.74-19.52 7.91-27.5 11.48-7.98 3.57-18.55 8.53-23.5 11.03-4.95 2.5-13.05 7.12-18 10.28-4.95 3.16-14.51 9.05-21.25 13.09-6.74 4.04-12.7 7.35-13.25 7.35-0.55 0-1.11 0.39-1.25 0.87-0.14 0.48-4.75 3.46-10.25 6.62-5.5 3.17-15.17 8.46-21.5 11.77-6.33 3.31-11.95 6.36-12.5 6.78-0.55 0.41-9.32 5.36-19.5 10.99-10.18 5.63-20.98 11.6-24 13.26-3.02 1.67-10.68 5.62-17 8.78-6.32 3.16-14.43 7.08-18 8.71-3.57 1.63-12.57 5.43-20 8.45-7.43 3.01-17.1 6.63-21.5 8.05-4.4 1.42-11.15 3.08-15 3.7-4.06 0.65-22.95 1.2-45 1.32-37.06 0.2-38.21 0.14-46.5-2.14-4.68-1.28-12.55-3.69-17.5-5.34-4.95-1.66-13.27-4.82-18.5-7.04-5.22-2.22-16.93-7.72-26-12.22-9.07-4.51-19.87-10.14-24-12.53-4.12-2.39-9.3-5.72-11.5-7.42-2.2-1.69-6.2-5.1-8.89-7.59-2.68-2.49-5.38-5.05-6-5.69-0.61-0.64-2.57-2.89-4.36-5-1.78-2.11-5.49-6.76-8.24-10.33-2.75-3.58-5-6.84-5-7.25-0.01-0.41-1.17-2.44-2.59-4.5-1.42-2.06-3.47-5.78-4.56-8.25-1.08-2.48-2.36-5.4-2.84-6.5-0.48-1.1-1.37-4.25-1.98-7-0.61-2.75-1.51-15.35-2-28-0.49-12.65-1.53-26.6-2.31-31-0.77-4.4-2.02-9.24-2.76-10.75-0.74-1.51-1.71-2.75-2.16-2.75-0.45 0-0.8-0.56-0.8-1.25 0.01-0.69-1.9-3.12-4.25-5.4-2.34-2.28-7.52-5.77-11.51-7.75-3.99-1.98-10.51-4.55-14.5-5.72-5.95-1.73-10.56-2.17-25.75-2.45-17.15-0.31-19.16-0.15-27.5 2.13z"/>
</svg>