<svg version="1.2" xmlns="http://www.w3.org/2000/svg" viewBox="0 0 958 956" width="958" height="956">
	<style>
		.s0 { opacity: 1;fill: #000000 } 
	</style>
	<path id="Path 0" class="s0" d="m61 2.01c-5.23 0.37-11.52 1.44-14 2.38-2.48 0.94-7.42 3.36-11 5.38-3.58 2.02-9.36 6.39-12.86 9.7-3.51 3.32-8.47 9.18-11.05 13.03-2.78 4.17-5.87 10.64-7.63 16l-2.96 9v842c3.69 10.08 5.67 14.8 6.77 17 1.1 2.2 3.39 6.02 5.08 8.5 1.7 2.48 4.9 6.47 7.12 8.89 2.21 2.41 7.29 6.57 11.28 9.25 3.99 2.67 9.61 5.81 12.5 6.98 2.89 1.17 7.5 2.74 10.25 3.49 4.12 1.13 31.35 1.37 155.25 1.38l150.25 0.01c0.12-33.71 0.08-63.75 0-88.5-0.08-24.75-0.23-45.1-0.33-45.22-0.09-0.11-6.24 0.7-13.67 1.82-8.03 1.2-21.4 2.25-33 2.57-14.69 0.42-22.46 0.16-31.5-1.03-6.6-0.87-16.05-2.74-21-4.16-4.95-1.41-13.05-4.55-18-6.97-4.95-2.41-12.15-6.81-16-9.77-3.85-2.96-9.62-8.5-12.83-12.31-3.28-3.9-7.72-10.87-10.15-15.93-2.38-4.95-6.2-13.05-8.5-18-2.29-4.95-6.72-13.27-9.84-18.5-3.12-5.23-8.88-13.77-12.8-19-3.92-5.23-9.55-11.81-12.51-14.64-2.95-2.83-9.19-7.58-13.87-10.57-4.68-2.99-10.9-8.1-13.83-11.36-4.61-5.12-5.29-6.4-5-9.38 0.26-2.72 1.07-3.89 3.83-5.5 3.1-1.81 5.17-2.05 18-2.03 13.98 0.02 14.79 0.14 22.5 3.24 4.4 1.76 10.7 4.99 14 7.16 3.3 2.18 8.55 6.12 11.66 8.77 3.11 2.64 8.44 7.96 11.85 11.81 3.4 3.85 10.07 12.85 14.83 19.99 5.1 7.65 11.95 16.33 16.66 21.1 4.4 4.46 10.93 10.06 14.5 12.45 3.57 2.39 9.65 5.81 13.5 7.59 3.85 1.79 11.05 4.27 16 5.52 7.19 1.81 11.82 2.27 23 2.29 11.03 0.02 16.23-0.47 24.5-2.3 5.77-1.27 14.77-3.91 20-5.85 5.23-1.94 9.61-3.58 9.74-3.66 0.13-0.07 1.18-4.63 2.34-10.13 1.15-5.5 3.42-13.6 5.04-18 1.62-4.4 4.56-10.92 6.53-14.5 1.97-3.58 4.96-8.3 6.64-10.5 1.68-2.2 4.66-5.68 6.63-7.73 1.97-2.05 3.35-3.89 3.08-4.09-0.27-0.19-6.35-1.14-13.5-2.11-7.15-0.96-17.5-2.63-23-3.71-5.5-1.08-15.18-3.26-21.5-4.85-6.32-1.59-16-4.42-21.5-6.29-5.5-1.87-14.95-5.5-21-8.05-6.05-2.56-15.95-7.6-22-11.21-6.05-3.61-14.38-9.11-18.5-12.23-4.12-3.12-11.05-9.06-15.38-13.2-4.34-4.14-10.46-10.68-13.61-14.53-3.15-3.85-8.39-11.05-11.65-16-3.26-4.95-8.34-13.95-11.28-20-2.95-6.05-7.53-17.52-10.18-25.5-2.65-7.98-6.17-21.25-7.81-29.5-1.64-8.25-3.57-19.73-4.29-25.5-0.81-6.58-1.29-21.71-1.27-40.5 0.02-28.92 0.12-30.47 2.79-43 1.52-7.15 4.36-17.73 6.31-23.5 1.95-5.77 5.94-15.45 8.86-21.5 2.92-6.05 8.33-15.5 12.03-21 3.69-5.5 9.3-13.15 12.46-17l5.76-7c-3.51-10.07-5.24-16.37-6.09-20.5-0.86-4.12-2.03-11.55-2.6-16.5-0.57-4.95-1.04-12.82-1.04-17.5-0.01-4.68 0.66-14.12 1.48-21 0.82-6.87 2.4-16.32 3.52-21 1.12-4.68 3.6-13.34 5.51-19.25 3.14-9.7 3.75-10.81 6.23-11.4 1.51-0.36 7.25-0.38 12.75-0.04 5.5 0.34 14.5 1.73 20 3.09 5.5 1.35 14.05 3.9 19 5.64 4.95 1.75 13.73 5.32 19.5 7.92 5.77 2.6 16.35 8 23.5 12.01 7.15 4 17.95 10.39 24 14.21l11 6.94c18.6-4.67 28.73-6.96 34.5-8.1 5.77-1.14 17.25-2.95 25.5-4.03 8.25-1.07 21.52-2.41 29.5-2.96 7.98-0.56 21.59-1.01 30.25-1.02 8.66-0.01 22.39 0.46 30.5 1.02 8.11 0.57 19.92 1.71 26.25 2.54 6.33 0.82 16.67 2.4 23 3.51 6.33 1.1 17.91 3.57 25.75 5.47l14.25 3.45c20.54-12.96 31.9-19.67 38.5-23.28 6.6-3.61 16.27-8.44 21.5-10.74 5.23-2.29 12.42-5.28 16-6.64 3.58-1.36 11.67-3.83 18-5.49 8.49-2.23 14.64-3.15 23.5-3.53 9.19-0.4 12.39-0.2 13.68 0.83 0.92 0.74 3.3 6.3 5.29 12.35 1.99 6.05 4.81 16.63 6.27 23.5 2.4 11.3 2.66 14.62 2.71 34.5 0.04 17.26-0.33 23.94-1.74 31-0.98 4.95-2.93 12.6-4.34 17l-2.56 8c10.5 13.18 16.22 21.05 19.47 26 3.26 4.95 8.09 13.5 10.73 19 2.64 5.5 6.23 14.05 7.97 19 1.74 4.95 4.21 13.5 5.49 19 1.28 5.5 2.94 14.05 3.68 19 0.86 5.72 1.32 17.39 1.27 32-0.06 14.87-0.69 28.12-1.8 37.5-0.94 7.98-2.84 20.13-4.22 27-1.38 6.88-3.67 16.55-5.09 21.5-1.42 4.95-4.04 12.83-5.81 17.5-1.78 4.67-5.55 13.11-8.37 18.75-2.82 5.64-7.08 13.29-9.47 17-2.39 3.71-7.21 10.35-10.71 14.75-3.5 4.4-9.75 11.31-13.9 15.35-4.15 4.05-11.82 10.57-17.04 14.5-5.22 3.93-14.45 9.97-20.5 13.42-6.06 3.45-15.74 8.26-21.51 10.7-5.77 2.43-14.77 5.82-20 7.54-5.23 1.71-13.55 4.17-18.5 5.46-4.95 1.29-14.62 3.48-21.5 4.87-6.87 1.4-18.58 3.32-26 4.27-7.42 0.95-13.6 1.76-13.73 1.81-0.12 0.04 2.06 2.56 4.86 5.58 2.79 3.02 7.04 8.65 9.44 12.5 2.4 3.85 5.94 10.83 7.85 15.5 1.92 4.67 4.39 12.33 5.49 17 1.1 4.67 2.47 12.33 3.05 17 0.66 5.36 1.04 43.49 1.04 103.25v94.75c222.81-0.08 291.77-0.45 297-0.88 6.58-0.55 11.5-1.61 16-3.46 3.58-1.47 8.98-4.13 12-5.92 3.02-1.78 8.65-6.41 12.5-10.29 3.85-3.88 8.57-9.73 10.49-13 1.92-3.27 4.58-8.87 5.91-12.45l2.41-6.5c1.42-157.68 1.45-337.52 0.98-525l-0.82-325c-4.47-10.85-7.33-16.47-9.24-19.5-1.91-3.02-7.02-8.99-11.35-13.25-5.99-5.89-9.74-8.62-15.63-11.39-4.26-2-10.23-4.48-13.25-5.51-5.35-1.83-16.77-1.88-420.5-1.7-228.25 0.1-419.27 0.49-424.5 0.86z"/>
</svg>