<svg version="1.2" xmlns="http://www.w3.org/2000/svg" viewBox="0 0 958 956" width="958" height="956">
	<style>
		.s0 { fill: #000000 } 
	</style>
	<path id="Path 0" fill-rule="evenodd" class="s0" d="m485.5 1.15c403.73-0.18 415.15-0.13 420.5 1.7 3.02 1.03 8.99 3.51 13.25 5.51 5.89 2.77 9.64 5.5 15.63 11.39 4.33 4.26 9.44 10.23 11.35 13.25 1.91 3.02 4.77 8.65 9.24 19.5l0.82 324c0.47 186.02 0.43 367.01-0.98 526l-2.41 6.5c-1.33 3.58-3.99 9.18-5.91 12.45-1.92 3.27-6.64 9.12-10.49 13-3.85 3.88-9.48 8.51-12.5 10.29-3.02 1.79-8.42 4.45-12 5.92-4.5 1.85-9.42 2.91-16 3.46-5.23 0.43-195.57 0.8-423 0.82-346.58 0.03-414.31-0.18-418.5-1.33-2.75-0.75-7.36-2.32-10.25-3.49-2.89-1.17-8.51-4.31-12.5-6.98-3.99-2.68-9.07-6.84-11.28-9.25-2.22-2.42-5.42-6.41-7.12-8.89-1.69-2.48-3.98-6.3-5.08-8.5-1.1-2.2-3.08-6.92-6.77-17v-842l2.96-9c1.76-5.36 4.85-11.83 7.63-16 2.58-3.85 7.54-9.71 11.05-13.03 3.5-3.31 9.28-7.68 12.86-9.7 3.58-2.02 8.52-4.44 11-5.38 2.48-0.94 8.77-2.01 14-2.38 5.22-0.37 196.25-0.76 424.5-0.86zm-297.12 136.06c-3.78 1.12-10.25 3.85-14.38 6.08-5.42 2.92-10.14 6.7-17 13.63-5.22 5.27-11.07 12.28-12.99 15.58-1.93 3.3-5.04 10.5-6.93 16-2.98 8.65-3.5 11.62-3.88 22-0.32 8.79 0.01 14.14 1.23 20 0.92 4.4 3.1 11.38 4.84 15.5 1.74 4.13 5.25 10.65 7.8 14.5 2.55 3.85 7.28 9.5 10.53 12.55 3.24 3.06 7.93 6.93 10.4 8.62 2.47 1.69 7.31 4.47 10.75 6.2 3.44 1.72 9.74 4.1 14 5.28 6.17 1.71 10.5 2.15 21.25 2.15 11.73 0 14.65-0.35 22.25-2.65 4.81-1.46 11.11-3.83 14-5.27 2.89-1.44 7.95-4.54 11.25-6.88 3.3-2.35 8.5-6.91 11.55-10.13 3.06-3.23 7.08-8.12 8.95-10.87 1.87-2.75 4.82-8.15 6.57-12 1.74-3.85 4.02-10.37 5.05-14.5 1.38-5.5 1.86-10.84 1.79-20-0.08-10.55-0.52-13.91-2.81-21.5-1.49-4.95-4.31-11.93-6.26-15.5-1.95-3.57-5.15-8.53-7.11-11-1.96-2.47-5.17-6.23-7.15-8.35-1.97-2.12-6.95-6.14-11.08-8.94-4.12-2.79-10.43-6.4-14-8.02-3.57-1.61-8.53-3.6-11-4.41-2.83-0.93-9.88-1.61-19-1.83-8.37-0.21-16.03 0.08-18.12 0.68-1.99 0.58-6.71 1.97-10.5 3.08zm424.62 213.78c-5.77 1.07-14.1 3.14-18.5 4.61-4.4 1.46-12.27 4.52-17.5 6.81-5.23 2.29-13.1 6.39-17.5 9.12-4.4 2.74-11.94 8.23-16.75 12.22-4.81 3.99-11.72 10.74-15.35 15-3.63 4.26-8.69 11-11.25 14.97-2.56 3.97-5.21 7.23-5.9 7.25-0.97 0.02-1.25-6.82-1.25-30.97v-31h-135v455h140c-0.88-26.74-0.68-83.77-0.12-144 0.81-86.73 1.32-111.58 2.48-119.5 0.81-5.5 2.43-13.83 3.6-18.5 1.17-4.67 4.65-13.67 7.72-20 4.86-10.02 6.63-12.54 13.7-19.61 6.47-6.46 9.85-8.94 16.62-12.2 4.67-2.24 12.33-5.08 17-6.29 7.04-1.84 11.16-2.21 24-2.18 11.13 0.02 17.33 0.5 22 1.7 3.58 0.92 9.88 3.34 14 5.37 5.28 2.61 9.57 5.79 14.5 10.73 4.41 4.43 8.34 9.6 10.63 14 1.99 3.84 4.54 9.68 5.67 12.98 1.12 3.3 2.95 10.5 4.06 16 1.11 5.5 2.49 15.74 3.08 22.75 0.67 8.11 1.06 57.56 1.06 136v123.25c51.54-1.16 83.26-1.5 103.75-1.5h37.25c0-206.03-0.43-270.41-1.03-282.5-0.56-11.55-1.7-26.18-2.54-32.5-0.83-6.32-2.18-15.1-2.99-19.5-0.82-4.4-2.9-13.4-4.62-20-1.73-6.6-4.89-16.5-7.04-22-2.15-5.5-5.86-13.6-8.24-18-2.39-4.4-7.02-11.6-10.3-16-3.27-4.4-9.51-11.43-13.85-15.61-4.34-4.19-11.94-10.25-16.89-13.46-4.95-3.22-13.95-7.98-20-10.59-6.05-2.61-16.17-6.11-22.5-7.78-6.33-1.67-16.23-3.71-22-4.54-5.77-0.84-19.73-1.7-31-1.93-11.27-0.22-22.3-0.21-24.5 0.03-2.2 0.24-8.73 1.31-14.5 2.37zm-469.35 234.76c0.35 124.71 0.68 226.8 0.74 226.86 0.06 0.06 31.5 0.4 69.86 0.75l69.75 0.64v-455h-140.97z"/>
</svg>