<svg version="1.2" xmlns="http://www.w3.org/2000/svg" viewBox="0 0 958 956" width="958" height="956">
	<style>
		.s0 { opacity: 1;fill: #ffffff } 
	</style>
	<path id="Path 0" fill-rule="evenodd" class="s0" d="m485.5 1.15c403.73-0.18 415.15-0.13 420.5 1.7 3.02 1.03 8.99 3.51 13.25 5.51 5.89 2.77 9.64 5.5 15.63 11.39 4.33 4.26 9.44 10.23 11.35 13.25 1.91 3.02 4.77 8.65 9.24 19.5l0.81 321.5c0.46 182.8 0.43 366.15-0.96 528.5l-2.42 6.5c-1.33 3.58-3.99 9.18-5.91 12.45-1.92 3.27-6.64 9.12-10.49 13-3.85 3.88-9.48 8.51-12.5 10.29-3.02 1.79-8.42 4.45-12 5.92-4.5 1.85-9.42 2.91-16 3.46-5.23 0.43-195.57 0.8-423 0.82-346.58 0.03-414.31-0.18-418.5-1.33-2.75-0.75-7.36-2.32-10.25-3.49-2.89-1.17-8.51-4.31-12.5-6.98-3.99-2.68-9.07-6.84-11.28-9.25-2.22-2.42-5.42-6.41-7.12-8.89-1.69-2.48-3.98-6.3-5.08-8.5-1.1-2.2-3.08-6.92-6.77-17v-842l2.96-9c1.76-5.36 4.85-11.83 7.63-16 2.58-3.85 7.54-9.71 11.05-13.03 3.5-3.31 9.28-7.68 12.86-9.7 3.58-2.02 8.52-4.44 11-5.38 2.48-0.94 8.77-2.01 14-2.38 5.22-0.37 196.25-0.76 424.5-0.86zm-324.1 217.1c-0.33 1.24-0.12 3.82 0.46 5.75 0.59 1.93 3.28 6.43 5.98 10 2.7 3.57 16.33 20.29 30.28 37.15 13.96 16.86 26.5 32.83 27.86 35.5l2.49 4.85c0.66 254.03 0.46 293.29-0.43 300-0.78 5.91-2.03 10.54-3.66 13.5-1.36 2.48-9.31 12.86-17.68 23.07-8.36 10.22-23.47 28.67-33.58 41-10.11 12.34-19 23.67-19.75 25.18-1.04 2.08-1.13 3.72-0.37 6.75l1 4 188.5 0.04c1.28-6.85 1.05-9-0.01-11.29-0.83-1.79-7.69-10.69-15.25-19.78-7.56-9.09-17.77-21.46-22.7-27.5-4.93-6.03-9.22-11.2-9.55-11.47-0.32-0.27-5.26-6.35-10.98-13.5-5.72-7.15-11.19-14.35-12.16-16-0.97-1.65-2.49-5.02-3.38-7.5-1.46-4.05-1.61-15.54-1.54-115 0.04-60.77 0.41-116.42 0.82-123.65l0.75-13.15c3.28 3.33 5.14 6.1 6.26 8.3 1.12 2.2 11.8 25.38 23.75 51.5 11.94 26.13 29.15 63.7 38.23 83.5 9.08 19.8 18.25 39.94 20.39 44.75 2.13 4.81 4.29 9.54 4.8 10.5 0.51 0.96 2.27 4.67 3.91 8.25 1.64 3.58 7.02 15.27 11.95 26 4.93 10.73 13.35 29.17 18.71 41 5.36 11.83 11.99 26.23 14.75 32 2.75 5.77 5.65 12.3 6.43 14.5 0.79 2.2 2 4.67 2.7 5.5 0.71 0.83 2.05 3.52 3 6 0.94 2.48 4.05 9.23 6.92 15l5.2 10.5h19c3.73-7.75 6.82-15.17 9.27-21.5 2.45-6.33 5.81-14.87 7.45-19 1.64-4.12 4.92-12.45 7.29-18.5 2.37-6.05 5.64-14.37 7.27-18.5 1.63-4.12 5.1-12.9 7.7-19.5 2.61-6.6 5.78-14.7 7.05-18 1.27-3.3 4.65-11.85 7.51-19 2.86-7.15 6.21-15.7 7.45-19 1.25-3.3 4.16-10.73 6.49-16.5 2.32-5.77 5.34-13.42 6.72-17 1.37-3.58 3.17-8.08 4-10 0.83-1.92 2.97-7.55 4.76-12.5 1.79-4.95 3.95-10.35 4.81-12 0.86-1.65 3.13-7.27 5.07-12.5 1.93-5.23 4.5-11.98 5.72-15 1.22-3.02 3.5-8.65 5.06-12.5 1.56-3.85 4.25-10.6 5.97-15 1.73-4.4 4.17-10.7 5.44-14 1.26-3.3 3.72-9.6 5.47-14 1.74-4.4 3.78-9.8 4.52-12 0.75-2.2 2.79-7.37 4.55-11.5 1.75-4.12 5.16-12.67 7.57-19 2.41-6.32 4.61-11.61 4.87-11.75 0.27-0.14 0.94-0.02 1.49 0.25 0.66 0.33 1 50.5 1 147.5v147c-46.95 46.49-55.33 55.45-56.02 57.75-0.59 1.96-0.62 3.94-0.08 5 0.82 1.6 4.3 1.81 41.75 2.5 22.47 0.41 63.8 0.75 91.85 0.75 28.05 0 65.97-0.34 84.26-0.75 28.24-0.64 33.34-0.98 33.75-2.25 0.26-0.83 0.03-3.08-0.53-5-0.76-2.62-7.4-9.91-26.43-29-16.71-16.76-25.96-26.78-26.99-29.25-1.4-3.35-1.56-23.38-1.57-190l-0.02-186.25c4.44-6.98 8.61-11.66 12.13-14.91 3.52-3.25 14.84-14.28 25.16-24.5 15.58-15.43 18.86-19.18 19.34-22.09 0.42-2.52 0.13-3.92-1.04-5-1.42-1.3-12.96-1.55-87.85-1.88l-86.21-0.39c-3.87 5.25-6.05 9.25-7.33 12.27-1.29 3.03-2.94 7.3-3.68 9.5-0.74 2.2-3 7.83-5.02 12.5-2.01 4.68-4.27 10.3-5.01 12.5-0.74 2.2-2.77 7.38-4.53 11.5-1.75 4.13-5.1 12.45-7.44 18.5-2.34 6.05-5.2 13.25-6.36 16-1.17 2.75-3.73 9.05-5.7 14-1.97 4.95-4.49 11.25-5.62 14-1.12 2.75-3.06 7.7-4.31 11-1.25 3.3-5.74 14.55-9.98 25-4.24 10.45-8.38 20.8-9.22 23-0.83 2.2-2.31 5.8-3.29 8-0.98 2.2-5.24 12.77-9.46 23.5-4.22 10.73-8.81 22.2-10.21 25.5-1.4 3.3-3.81 9.38-5.37 13.5-1.56 4.13-4.48 11.33-6.5 16-2.02 4.68-4.26 10.3-5 12.5-0.73 2.2-3.39 8.95-5.92 15-2.52 6.05-4.57 11.56-4.57 12.25 0.01 0.69-0.88 2.15-1.98 3.25-1.1 1.1-2.9 2-4 2-1.1 0-2.29-0.79-2.64-1.75-0.36-0.96-11.44-25.6-24.64-54.75-13.2-29.15-31.16-68.75-39.91-88-8.74-19.25-16.99-37.25-18.31-40-1.33-2.75-6.72-14.45-11.99-26-5.26-11.55-17.25-37.87-26.63-58.5-9.39-20.62-17.72-38.4-18.52-39.5-1.43-1.97-2.64-2-86.65-2.07-46.87-0.03-88.25 0.08-91.96 0.25-6.02 0.29-6.81 0.56-7.35 2.57z"/>
</svg>